<svg width="27" height="18" viewBox="0 0 27 18" fill="none" xmlns="http://www.w3.org/2000/svg">
<path fill-rule="evenodd" clip-rule="evenodd" d="M7.875 0H5.625V2.25H7.875V4.5H4.5V6.75H2.25V9H0V16.3125H2.25V11.25H4.5V15.75H6.75V18H11.25V15.75H6.75V13.5H20.25V15.75H15.75V18H20.25V15.75H22.5V11.25H24.75V16.3125H27V9H24.75V6.75H22.5V4.5H19.125V2.25H21.375V0H19.125V2.25H16.875V4.5H10.125V2.25H7.875V0ZM15.75 6.75H19.125V9H15.75V6.75ZM7.875 6.75H11.25V9H7.875V6.75Z" fill="url(#paint0_linear_126_27)"/>
<defs>
<linearGradient id="paint0_linear_126_27" x1="13.3241" y1="1.53409" x2="13.3241" y2="15.75" gradientUnits="userSpaceOnUse">
<stop stop-color="#DDE0FF"/>
<stop offset="1" stop-color="#A36CFF"/>
</linearGradient>
</defs>
</svg>
