<svg width="23" height="23" viewBox="0 0 23 23" fill="none" xmlns="http://www.w3.org/2000/svg">
    <g clip-path="url(#clip0_2926_260142)">
        <path d="M12.4166 4.34195C11.8655 4.33535 11.2575 4.33535 10.5833 4.33535C7.146 4.33535 5.42737 4.33535 4.22257 5.21069C3.83347 5.49339 3.49129 5.83557 3.20859 6.22467C2.33325 7.42947 2.33325 9.14809 2.33325 12.5853C2.33325 16.0226 2.33325 17.7412 3.20859 18.946C3.49129 19.3351 3.83347 19.6773 4.22257 19.96C5.42737 20.8353 7.146 20.8353 10.5833 20.8353C14.0205 20.8353 15.7391 20.8353 16.9439 19.96C17.333 19.6773 17.6752 19.3351 17.9579 18.946C18.8333 17.7412 18.8333 16.0226 18.8333 12.5853C18.8333 11.9111 18.8333 11.3031 18.8266 10.752M10.1577 12.4472L20.5083 2.09659L20.5311 2.07882M14.695 1.42808L16.9703 1.41793C18.7848 1.40983 19.692 1.40578 20.3126 1.88605C20.3896 1.94563 20.4626 2.01002 20.5311 2.07882M21.1768 7.90989L21.1869 5.63459C21.195 3.82009 21.1991 2.91284 20.7188 2.29225C20.6607 2.21718 20.598 2.1459 20.5311 2.07882" stroke="white" stroke-width="1.5"/>
    </g>
    <defs>
        <clipPath id="clip0_2926_260142">
            <rect width="22" height="22" fill="white" transform="translate(0.5 0.5)"/>
        </clipPath>
    </defs>
</svg>
